<svg width="45" height="21" viewBox="0 0 45 21" fill="none" xmlns="http://www.w3.org/2000/svg">
<path d="M1.81818 7.69054H1.02273C0.776515 7.69054 0.582386 7.67162 0.440341 7.63378C0.307765 7.59595 0.208333 7.525 0.142045 7.42095C0.0757576 7.31689 0.0331439 7.175 0.0142045 6.99527C0.00473485 6.80608 0 6.56486 0 6.27162C0 6.00676 0.00473485 5.79392 0.0142045 5.63311C0.0331439 5.46284 0.0757576 5.33041 0.142045 5.23581C0.208333 5.14122 0.307765 5.07973 0.440341 5.05135C0.582386 5.01351 0.776515 4.99459 1.02273 4.99459H1.74716L1.66193 1.03581C1.66193 0.837162 1.68087 0.671622 1.71875 0.539189C1.7661 0.397297 1.87027 0.288514 2.03125 0.212838C2.19223 0.137162 2.42424 0.0851351 2.72727 0.0567568C3.03977 0.0189189 3.4517 0 3.96307 0C4.47443 0 4.88163 0.0189189 5.18466 0.0567568C5.49716 0.0851351 5.7339 0.137162 5.89489 0.212838C6.05587 0.288514 6.1553 0.397297 6.19318 0.539189C6.24053 0.671622 6.2642 0.837162 6.2642 1.03581L6.16477 4.99459H6.90341C7.14962 4.99459 7.33902 5.01351 7.47159 5.05135C7.61364 5.07973 7.7178 5.14122 7.78409 5.23581C7.85038 5.33041 7.88826 5.46284 7.89773 5.63311C7.91667 5.79392 7.92614 6.00676 7.92614 6.27162C7.92614 6.56486 7.91667 6.80608 7.89773 6.99527C7.88826 7.175 7.85038 7.31689 7.78409 7.42095C7.7178 7.525 7.61364 7.59595 7.47159 7.63378C7.33902 7.67162 7.14962 7.69054 6.90341 7.69054H6.10795L5.89489 20.1912C5.89489 20.3709 5.82386 20.6169 5.82386 20.6169C5.82386 20.6169 5.68655 20.8014 5.55398 20.8581C5.4214 20.9149 5.23201 20.9527 4.9858 20.9716C4.74905 20.9905 4.43182 21 4.03409 21C3.63636 21 3.31439 20.9905 3.06818 20.9716C2.83144 20.9527 2.64678 20.9149 2.5142 20.8581C2.3911 20.8014 2.30587 20.7209 2.25852 20.6169C2.21117 20.5128 2.1875 20.3709 2.1875 20.1912L1.81818 7.69054Z" fill="white"/>
<path d="M11.0653 4.81014C11.0653 4.61149 11.0843 4.44595 11.1222 4.31351C11.1695 4.17162 11.2642 4.06284 11.4063 3.98716C11.5578 3.91149 11.7756 3.85946 12.0597 3.83108C12.3532 3.79324 12.7415 3.77432 13.2244 3.77432C13.7074 3.77432 14.0909 3.79324 14.375 3.83108C14.6686 3.85946 14.8864 3.91149 15.0284 3.98716C15.1799 4.06284 15.2746 4.17162 15.3125 4.31351C15.3598 4.44595 15.3835 4.61149 15.3835 4.81014L15.3551 5.67568C15.6203 5.37297 15.8902 5.09865 16.1648 4.8527C16.4489 4.5973 16.7472 4.37973 17.0597 4.2C17.3816 4.01081 17.7225 3.86419 18.0824 3.76014C18.4422 3.65608 18.8352 3.60405 19.2614 3.60405C20.0663 3.60405 20.7813 3.8027 21.4063 4.2C22.0313 4.5973 22.5047 5.16486 22.8267 5.9027C23.1108 5.57162 23.3949 5.26892 23.679 4.99459C23.9725 4.71081 24.285 4.46486 24.6165 4.25676C24.9479 4.04865 25.303 3.88784 25.6818 3.77432C26.0606 3.66081 26.4773 3.60405 26.9318 3.60405C27.5095 3.60405 28.0445 3.70811 28.5369 3.91622C29.0388 4.12432 29.465 4.42703 29.8153 4.82432C30.1752 5.22162 30.4498 5.70405 30.6392 6.27162C30.8381 6.83919 30.928 7.48243 30.9091 8.20135L30.5682 20.0209C30.5682 20.2007 30.5445 20.3426 30.4972 20.4466C30.4498 20.5507 30.3598 20.6311 30.2273 20.6878C30.0947 20.7446 29.9053 20.7824 29.6591 20.8014C29.4223 20.8203 29.1051 20.8297 28.7074 20.8297C28.3097 20.8297 27.9877 20.8203 27.7415 20.8014C27.5047 20.7824 27.3201 20.7446 27.1875 20.6878C27.0644 20.6311 26.9792 20.5507 26.9318 20.4466C26.8845 20.3426 26.8608 20.2007 26.8608 20.0209L26.5341 8.61284C26.5246 8.24392 26.4773 7.93649 26.392 7.69054C26.3068 7.44459 26.1932 7.25068 26.0511 7.10878C25.9091 6.96689 25.7386 6.86757 25.5398 6.81081C25.3504 6.75405 25.142 6.72568 24.9148 6.72568C24.5549 6.72568 24.233 6.82973 23.9489 7.03784C23.6742 7.23649 23.4375 7.4777 23.2386 7.76149V8.20135L22.8977 20.0209C22.8977 20.2007 22.8741 20.3426 22.8267 20.4466C22.7794 20.5507 22.6894 20.6311 22.5568 20.6878C22.4242 20.7446 22.2348 20.7824 21.9886 20.8014C21.7519 20.8203 21.4347 20.8297 21.0369 20.8297C20.6392 20.8297 20.3172 20.8203 20.071 20.8014C19.8343 20.7824 19.6496 20.7446 19.517 20.6878C19.3939 20.6311 19.3087 20.5507 19.2614 20.4466C19.214 20.3426 19.1903 20.2007 19.1903 20.0209L18.8636 8.61284C18.8542 8.24392 18.8068 7.93649 18.7216 7.69054C18.6364 7.44459 18.5227 7.25068 18.3807 7.10878C18.2386 6.96689 18.0682 6.86757 17.8693 6.81081C17.6799 6.75405 17.4716 6.72568 17.2443 6.72568C16.8845 6.72568 16.5672 6.825 16.2926 7.02365C16.018 7.2223 15.7813 7.45878 15.5824 7.73311L15.2273 20.0209C15.2273 20.2007 15.2036 20.3426 15.1563 20.4466C15.1089 20.5507 15.0189 20.6311 14.8864 20.6878C14.7538 20.7446 14.5644 20.7824 14.3182 20.8014C14.0814 20.8203 13.7642 20.8297 13.3665 20.8297C12.9688 20.8297 12.6468 20.8203 12.4006 20.8014C12.1638 20.7824 11.9792 20.7446 11.8466 20.6878C11.7235 20.6311 11.6383 20.5507 11.5909 20.4466C11.5436 20.3426 11.5199 20.2007 11.5199 20.0209L11.0653 4.81014Z" fill="white"/>
<path d="M11.0653 4.81014C11.0653 4.61149 11.0843 4.44595 11.1222 4.31351C11.1695 4.17162 11.2642 4.06284 11.4063 3.98716C11.5578 3.91149 11.7756 3.85946 12.0597 3.83108C12.3532 3.79324 12.7415 3.77432 13.2244 3.77432C13.7074 3.77432 14.0909 3.79324 14.375 3.83108C14.6686 3.85946 14.8864 3.91149 15.0284 3.98716C15.1799 4.06284 15.2746 4.17162 15.3125 4.31351C15.3598 4.44595 15.3835 4.61149 15.3835 4.81014L15.3551 5.67568C15.6203 5.37297 15.8902 5.09865 16.1648 4.8527C16.4489 4.5973 16.7472 4.37973 17.0597 4.2C17.3816 4.01081 17.7225 3.86419 18.0824 3.76014C18.4422 3.65608 18.8352 3.60405 19.2614 3.60405C20.0663 3.60405 20.7813 3.8027 21.4063 4.2C22.0313 4.5973 22.5047 5.16486 22.8267 5.9027C23.1108 5.57162 23.3949 5.26892 23.679 4.99459C23.9725 4.71081 24.285 4.46486 24.6165 4.25676C24.9479 4.04865 25.303 3.88784 25.6818 3.77432C26.0606 3.66081 26.4773 3.60405 26.9318 3.60405C27.5095 3.60405 28.0445 3.70811 28.5369 3.91622C29.0388 4.12432 29.465 4.42703 29.8153 4.82432C30.1752 5.22162 30.4498 5.70405 30.6392 6.27162C30.8381 6.83919 30.928 7.48243 30.9091 8.20135L30.5682 20.0209C30.5682 20.2007 30.5445 20.3426 30.4972 20.4466C30.4498 20.5507 30.3598 20.6311 30.2273 20.6878C30.0947 20.7446 29.9053 20.7824 29.6591 20.8014C29.4223 20.8203 29.1051 20.8297 28.7074 20.8297C28.3097 20.8297 27.9877 20.8203 27.7415 20.8014C27.5047 20.7824 27.3201 20.7446 27.1875 20.6878C27.0644 20.6311 26.9792 20.5507 26.9318 20.4466C26.8845 20.3426 26.8608 20.2007 26.8608 20.0209L26.5341 8.61284C26.5246 8.24392 26.4773 7.93649 26.392 7.69054C26.3068 7.44459 26.1932 7.25068 26.0511 7.10878C25.9091 6.96689 25.7386 6.86757 25.5398 6.81081C25.3504 6.75405 25.142 6.72568 24.9148 6.72568C24.5549 6.72568 24.233 6.82973 23.9489 7.03784C23.6742 7.23649 23.4375 7.4777 23.2386 7.76149V8.20135L22.8977 20.0209C22.8977 20.2007 22.8741 20.3426 22.8267 20.4466C22.7794 20.5507 22.6894 20.6311 22.5568 20.6878C22.4242 20.7446 22.2348 20.7824 21.9886 20.8014C21.7519 20.8203 21.4347 20.8297 21.0369 20.8297C20.6392 20.8297 20.3172 20.8203 20.071 20.8014C19.8343 20.7824 19.6496 20.7446 19.517 20.6878C19.3939 20.6311 19.3087 20.5507 19.2614 20.4466C19.214 20.3426 19.1903 20.2007 19.1903 20.0209L18.8636 8.61284C18.8542 8.24392 18.8068 7.93649 18.7216 7.69054C18.6364 7.44459 18.5227 7.25068 18.3807 7.10878C18.2386 6.96689 18.0682 6.86757 17.8693 6.81081C17.6799 6.75405 17.4716 6.72568 17.2443 6.72568C16.8845 6.72568 16.5672 6.825 16.2926 7.02365C16.018 7.2223 15.7813 7.45878 15.5824 7.73311L15.2273 20.0209C15.2273 20.2007 15.2036 20.3426 15.1563 20.4466C15.1089 20.5507 15.0189 20.6311 14.8864 20.6878C14.7538 20.7446 14.5644 20.7824 14.3182 20.8014C14.0814 20.8203 13.7642 20.8297 13.3665 20.8297C12.9688 20.8297 12.6468 20.8203 12.4006 20.8014C12.1638 20.7824 11.9792 20.7446 11.8466 20.6878C11.7235 20.6311 11.6383 20.5507 11.5909 20.4466C11.5436 20.3426 11.5199 20.2007 11.5199 20.0209L11.0653 4.81014Z" fill="white"/>
<path d="M37.0455 13.8203H33.267C33.0208 13.8203 32.8314 13.8014 32.6989 13.7635C32.5663 13.7257 32.4621 13.6595 32.3864 13.5649C32.3201 13.4608 32.2775 13.3189 32.2585 13.1392C32.2491 12.9595 32.2443 12.7324 32.2443 12.4581C32.2443 12.1554 32.2491 11.9095 32.2585 11.7203C32.2775 11.5216 32.3201 11.3655 32.3864 11.252C32.4621 11.1385 32.5663 11.0628 32.6989 11.025C32.8314 10.9777 33.0208 10.9541 33.267 10.9541H36.946L36.804 6.92432C36.804 6.67838 36.8371 6.48919 36.9034 6.35676C36.9697 6.21486 37.0786 6.11081 37.2301 6.04459C37.3816 5.97838 37.5758 5.94054 37.8125 5.93108C38.0587 5.91216 38.3523 5.9027 38.6932 5.9027C39.0057 5.9027 39.2708 5.91216 39.4886 5.93108C39.7159 5.94054 39.8958 5.97838 40.0284 6.04459C40.161 6.11081 40.2557 6.21486 40.3125 6.35676C40.3788 6.48919 40.4119 6.67838 40.4119 6.92432L40.2699 10.9541H43.9773C44.214 10.9541 44.3987 10.9777 44.5313 11.025C44.6733 11.0628 44.7775 11.1385 44.8438 11.252C44.9195 11.3655 44.9621 11.5216 44.9716 11.7203C44.9905 11.9189 45 12.1696 45 12.4723C45 12.7466 44.9905 12.9736 44.9716 13.1534C44.9621 13.3236 44.9195 13.4608 44.8438 13.5649C44.7775 13.6595 44.6733 13.7257 44.5313 13.7635C44.3987 13.8014 44.214 13.8203 43.9773 13.8203H40.1705L40.0426 17.623C40.0426 17.8689 40.0189 18.0628 39.9716 18.2047C39.9242 18.3372 39.8485 18.4365 39.7443 18.5027C39.6402 18.5689 39.5028 18.6115 39.3324 18.6304C39.1619 18.6399 38.9441 18.6446 38.679 18.6446C38.3854 18.6446 38.1439 18.6399 37.9545 18.6304C37.7652 18.6115 37.6136 18.5689 37.5 18.5027C37.3864 18.4365 37.3011 18.3372 37.2443 18.2047C37.197 18.0628 37.1733 17.8689 37.1733 17.623L37.0455 13.8203Z" fill="white"/>
</svg>
