<?xml version="1.0" standalone="no"?>
<svg xmlns:xlink="http://www.w3.org/1999/xlink" id="wave" style="transform:rotate(0deg); transition: 0.3s" viewBox="0 0 1440 220" version="1.1" xmlns="http://www.w3.org/2000/svg"><defs><linearGradient id="sw-gradient-0" x1="0" x2="0" y1="1" y2="0"><stop stop-color="rgba(243, 106, 62, 1)" offset="0%"/><stop stop-color="rgba(255, 179, 11, 1)" offset="100%"/></linearGradient></defs><path style="transform:translate(0, 0px); opacity:1" fill="url(#sw-gradient-0)" d="M0,66L240,77C480,88,960,110,1440,106.3C1920,103,2400,73,2880,73.3C3360,73,3840,103,4320,102.7C4800,103,5280,73,5760,51.3C6240,29,6720,15,7200,36.7C7680,59,8160,117,8640,146.7C9120,176,9600,176,10080,168.7C10560,161,11040,147,11520,132C12000,117,12480,103,12960,110C13440,117,13920,147,14400,135.7C14880,125,15360,73,15840,47.7C16320,22,16800,22,17280,25.7C17760,29,18240,37,18720,36.7C19200,37,19680,29,20160,40.3C20640,51,21120,81,21600,88C22080,95,22560,81,23040,95.3C23520,110,24000,154,24480,146.7C24960,139,25440,81,25920,47.7C26400,15,26880,7,27360,14.7C27840,22,28320,44,28800,44C29280,44,29760,22,30240,14.7C30720,7,31200,15,31680,18.3C32160,22,32640,22,33120,44C33600,66,34080,110,34320,132L34560,154L34560,220L34320,220C34080,220,33600,220,33120,220C32640,220,32160,220,31680,220C31200,220,30720,220,30240,220C29760,220,29280,220,28800,220C28320,220,27840,220,27360,220C26880,220,26400,220,25920,220C25440,220,24960,220,24480,220C24000,220,23520,220,23040,220C22560,220,22080,220,21600,220C21120,220,20640,220,20160,220C19680,220,19200,220,18720,220C18240,220,17760,220,17280,220C16800,220,16320,220,15840,220C15360,220,14880,220,14400,220C13920,220,13440,220,12960,220C12480,220,12000,220,11520,220C11040,220,10560,220,10080,220C9600,220,9120,220,8640,220C8160,220,7680,220,7200,220C6720,220,6240,220,5760,220C5280,220,4800,220,4320,220C3840,220,3360,220,2880,220C2400,220,1920,220,1440,220C960,220,480,220,240,220L0,220Z"/></svg>